<svg width="100" height="100" viewBox="0 0 100 100" fill="none" xmlns="http://www.w3.org/2000/svg">
<path fill-rule="evenodd" clip-rule="evenodd" d="M40.5811 41.8479L15.4707 56.875C11.8673 59.0634 7.20947 57.9159 5.06729 54.3113C2.92474 50.7075 4.10938 46.0115 7.71282 43.8231L32.8232 28.796C36.4267 26.6077 41.0845 27.7552 43.2267 31.3598C45.3688 34.9643 44.1846 39.6596 40.5811 41.8479Z" fill="#F2F2F2"/>
<path d="M32.3219 72.1808L32.3282 72.1845L32.3347 72.188C36.4551 74.4721 41.6504 72.9402 43.9472 68.7967L43.2007 68.383L43.9472 68.7967C46.2426 64.6555 44.7916 59.4414 40.6761 57.1557L15.8405 42.8755L15.834 42.8718L15.8275 42.8682C11.7072 40.5846 6.51201 42.116 4.21518 46.2595C1.9196 50.4008 3.37113 55.6152 7.48609 57.9009L32.3219 72.1808Z" fill="#F2F2F2" stroke="#121212" stroke-width="1.88301"/>
<path fill-rule="evenodd" clip-rule="evenodd" d="M67.209 71.3646L92.0509 57.0811C95.7076 55.0541 97.0108 50.4133 94.9614 46.716C92.912 43.0187 88.2861 41.6648 84.6289 43.6917L59.7871 57.9755C56.13 60.0025 54.8272 64.643 56.8766 68.3403C58.926 72.0376 63.5519 73.3918 67.209 71.3646Z" fill="#F2F2F2"/>
<path d="M58.9304 42.6527L58.9304 42.6527L58.9357 42.6558L84.0407 57.6798C84.0416 57.6803 84.0424 57.6808 84.0432 57.6813C88.0894 60.1367 93.3303 58.8504 95.7421 54.7924C98.151 50.7405 96.8167 45.4723 92.776 43.0184L92.7707 43.0152L67.6658 27.9913C67.6649 27.9908 67.664 27.9902 67.6631 27.9897C63.6169 25.5344 58.3759 26.8208 55.9643 30.8788C53.5559 34.9313 54.8896 40.1987 58.9304 42.6527Z" fill="#F2F2F2" stroke="#121212" stroke-width="1.88301"/>
</svg>
