<svg width="100" height="100" viewBox="0 0 100 100" fill="none" xmlns="http://www.w3.org/2000/svg">
<path fill-rule="evenodd" clip-rule="evenodd" d="M39.996 41.3417L13.3255 57.3024C9.49817 59.6267 4.55096 58.4079 2.27569 54.5794C2.74181e-05 50.7517 1.25826 45.7639 5.08558 43.4396L31.7561 27.4789C35.5834 25.1546 40.5306 26.3734 42.8059 30.2019C45.0811 34.0304 43.8233 39.0174 39.996 41.3417Z" fill="#EA4335"/>
<path fill-rule="evenodd" clip-rule="evenodd" d="M31.7218 72.6922L5.3364 57.5213C1.45247 55.3684 0.068251 50.4392 2.24504 46.5122C4.42183 42.5852 9.33516 41.1472 13.2195 43.3L39.6049 58.4713C43.4892 60.6242 44.873 65.553 42.6963 69.48C40.5195 73.407 35.6061 74.8454 31.7218 72.6922Z" fill="#4285F4"/>
<path fill-rule="evenodd" clip-rule="evenodd" d="M68.2782 72.6922L94.6635 57.5213C98.5474 55.3684 99.9316 50.4392 97.7548 46.5122C95.5781 42.5852 90.6648 41.1472 86.7804 43.3L60.3952 58.4713C56.5109 60.6242 55.1271 65.553 57.3038 69.48C59.4806 73.407 64.3939 74.8454 68.2782 72.6922Z" fill="#FBBC04"/>
<path fill-rule="evenodd" clip-rule="evenodd" d="M60.0043 41.3417L86.6747 57.3024C90.502 59.6267 95.4491 58.4079 97.7244 54.5794C100 50.7517 98.7418 45.7639 94.9145 43.4396L68.2442 27.4789C64.4169 25.1546 59.4697 26.3734 57.1945 30.2019C54.9192 34.0304 56.177 39.0174 60.0043 41.3417Z" fill="#0F9D58"/>
</svg>
